<?xml version="1.0" standalone="no"?>
<!DOCTYPE svg PUBLIC "-//W3C//DTD SVG 20010904//EN"
 "http://www.w3.org/TR/2001/REC-SVG-20010904/DTD/svg10.dtd">
<svg version="1.0" xmlns="http://www.w3.org/2000/svg"
 width="73.000000pt" height="73.000000pt" viewBox="0 0 73.000000 73.000000"
 preserveAspectRatio="xMidYMid meet">
<metadata>
Created by potrace 1.14, written by Peter Selinger 2001-2017
</metadata>
<g transform="translate(0.000000,73.000000) scale(0.100000,-0.100000)"
fill="#000000" stroke="none">
<path d="M288 673 c-90 -23 -166 -80 -221 -165 l-17 -28 31 0 c40 0 34 -9 -7
-12 -17 -1 -32 -7 -33 -13 -9 -37 -8 -191 1 -202 6 -7 7 -13 4 -13 -4 0 -2 -8
3 -19 10 -18 27 -19 316 -19 353 -1 322 -11 337 108 l3 25 -120 2 c-149 3
-165 7 -160 33 7 35 16 42 51 38 22 -3 34 0 34 8 0 22 31 44 58 42 15 -1 37 2
50 6 15 5 31 2 47 -8 28 -19 28 -8 -4 52 -67 129 -230 201 -373 165z"/>
<path d="M350 169 c0 -5 5 -7 10 -4 6 3 10 8 10 11 0 2 -4 4 -10 4 -5 0 -10
-5 -10 -11z"/>
<path d="M436 169 c4 -7 44 0 44 7 0 2 -11 3 -24 2 -14 -1 -23 -5 -20 -9z"/>
<path d="M495 170 c3 -5 8 -10 11 -10 2 0 4 5 4 10 0 6 -5 10 -11 10 -5 0 -7
-4 -4 -10z"/>
<path d="M230 140 c-6 -4 15 -7 46 -8 31 0 54 1 52 4 -8 7 -87 11 -98 4z"/>
<path d="M341 134 c0 -11 3 -14 6 -6 3 7 2 16 -1 19 -3 4 -6 -2 -5 -13z"/>
<path d="M371 140 c-9 -5 -4 -7 13 -7 29 0 32 2 13 10 -8 3 -20 2 -26 -3z"/>
<path d="M420 139 c0 -5 11 -9 25 -9 14 0 25 2 25 4 0 2 -11 6 -25 8 -14 3
-25 1 -25 -3z"/>
<path d="M515 140 c-3 -5 -1 -10 4 -10 6 0 11 5 11 10 0 6 -2 10 -4 10 -3 0
-8 -4 -11 -10z"/>
<path d="M350 95 c0 -8 29 -12 39 -5 9 5 4 8 -13 8 -14 0 -26 -2 -26 -3z"/>
</g>
</svg>
